<svg width="24" height="24" viewBox="0 0 24 24" fill="none" xmlns="http://www.w3.org/2000/svg">
<path d="M12 18.75C11.59 18.75 11.25 18.41 11.25 18V15C11.25 14.59 11.59 14.25 12 14.25C12.41 14.25 12.75 14.59 12.75 15V18C12.75 18.41 12.41 18.75 12 18.75Z" fill="black"/>
<path d="M17.6 22.5608H6.39996C4.57996 22.5608 2.91996 21.1608 2.61996 19.3708L1.28996 11.4008C1.06996 10.1608 1.67996 8.5708 2.66996 7.7808L9.59996 2.2308C10.94 1.1508 13.05 1.1608 14.4 2.2408L21.33 7.7808C22.31 8.5708 22.91 10.1608 22.71 11.4008L21.38 19.3608C21.08 21.1308 19.38 22.5608 17.6 22.5608ZM11.99 2.9308C11.46 2.9308 10.93 3.0908 10.54 3.4008L3.60996 8.9608C3.04996 9.4108 2.64996 10.4508 2.76996 11.1608L4.09996 19.1208C4.27996 20.1708 5.32996 21.0608 6.39996 21.0608H17.6C18.67 21.0608 19.72 20.1708 19.9 19.1108L21.23 11.1508C21.34 10.4508 20.94 9.3908 20.39 8.9508L13.46 3.4108C13.06 3.0908 12.52 2.9308 11.99 2.9308Z" fill="black"/>
</svg>
